<svg width="32" height="32" viewBox="0 0 32 32" fill="none" xmlns="http://www.w3.org/2000/svg">
<g filter="url(#filter0_d_865_2422)">
<path d="M16 12.5C15.0717 12.5 14.1815 12.8687 13.5251 13.5251C12.8687 14.1815 12.5 15.0717 12.5 16C12.5 16.9283 12.8687 17.8185 13.5251 18.4749C14.1815 19.1313 15.0717 19.5 16 19.5C16.9283 19.5 17.8185 19.1313 18.4749 18.4749C19.1313 17.8185 19.5 16.9283 19.5 16C19.5 15.0717 19.1313 14.1815 18.4749 13.5251C17.8185 12.8687 16.9283 12.5 16 12.5ZM14.5 16C14.5 15.6022 14.658 15.2206 14.9393 14.9393C15.2206 14.658 15.6022 14.5 16 14.5C16.3978 14.5 16.7794 14.658 17.0607 14.9393C17.342 15.2206 17.5 15.6022 17.5 16C17.5 16.3978 17.342 16.7794 17.0607 17.0607C16.7794 17.342 16.3978 17.5 16 17.5C15.6022 17.5 15.2206 17.342 14.9393 17.0607C14.658 16.7794 14.5 16.3978 14.5 16Z" fill="black"/>
<path d="M21.526 5.11716L18.347 0.660156L6.658 9.99816L6.01 9.99116V10.0012H5.5V22.0012H26.5V10.0012H25.538L23.624 4.40216L21.526 5.11716ZM23.425 10.0012H13.397L20.866 7.45516L22.388 6.96816L23.425 10.0012ZM19.55 5.79116L11.84 8.41916L17.946 3.54116L19.55 5.79116ZM7.5 18.1702V13.8302C7.9219 13.6807 8.30511 13.4389 8.6217 13.1225C8.93828 12.806 9.18027 12.423 9.33 12.0012H22.67C22.8197 12.4231 23.0616 12.8064 23.3782 13.123C23.6948 13.4395 24.078 13.6815 24.5 13.8312V18.1712C24.078 18.3208 23.6948 18.5628 23.3782 18.8794C23.0616 19.1959 22.8197 19.5792 22.67 20.0012H9.332C9.18218 19.5788 8.93996 19.1953 8.62302 18.8785C8.30607 18.5618 7.9224 18.3197 7.5 18.1702Z" fill="black"/>
</g>
<defs>
<filter id="filter0_d_865_2422" x="0" y="0" width="32" height="32" filterUnits="userSpaceOnUse" color-interpolation-filters="sRGB">
<feFlood flood-opacity="0" result="BackgroundImageFix"/>
<feColorMatrix in="SourceAlpha" type="matrix" values="0 0 0 0 0 0 0 0 0 0 0 0 0 0 0 0 0 0 127 0" result="hardAlpha"/>
<feOffset dy="4"/>
<feGaussianBlur stdDeviation="2"/>
<feComposite in2="hardAlpha" operator="out"/>
<feColorMatrix type="matrix" values="0 0 0 0 0 0 0 0 0 0 0 0 0 0 0 0 0 0 0.25 0"/>
<feBlend mode="normal" in2="BackgroundImageFix" result="effect1_dropShadow_865_2422"/>
<feBlend mode="normal" in="SourceGraphic" in2="effect1_dropShadow_865_2422" result="shape"/>
</filter>
</defs>
</svg>
