<svg width="25" height="25" viewBox="0 0 25 25" fill="none" xmlns="http://www.w3.org/2000/svg">
<path d="M12.5 7.81251C13.2813 4.72852 16.2319 3.15381 22.6563 3.12501C22.759 3.12462 22.8607 3.14456 22.9557 3.18369C23.0506 3.22281 23.1369 3.28034 23.2095 3.35296C23.2822 3.42559 23.3397 3.51187 23.3788 3.60683C23.418 3.70179 23.4379 3.80355 23.4375 3.90626V17.9688C23.4375 18.176 23.3552 18.3747 23.2087 18.5212C23.0622 18.6677 22.8635 18.75 22.6563 18.75C16.4063 18.75 13.9917 20.0103 12.5 21.875M12.5 7.81251C11.7188 4.72852 8.76807 3.15381 2.34376 3.12501C2.24105 3.12462 2.13929 3.14456 2.04433 3.18369C1.94937 3.22281 1.86309 3.28034 1.79046 3.35296C1.71784 3.42559 1.66031 3.51187 1.62119 3.60683C1.58206 3.70179 1.56212 3.80355 1.56251 3.90626V17.8745C1.56251 18.3569 1.86133 18.75 2.34376 18.75C8.59376 18.75 11.0171 20.0195 12.5 21.875M12.5 7.81251V21.875" stroke="white" stroke-width="1.875" stroke-linecap="round" stroke-linejoin="round"/>
</svg>
