<svg width="26" height="21" viewBox="0 0 26 21" fill="none" xmlns="http://www.w3.org/2000/svg">
<path d="M2 4.5C2 3.83696 2.26339 3.20107 2.73223 2.73223C3.20107 2.26339 3.83696 2 4.5 2H22C22.663 2 23.2989 2.26339 23.7678 2.73223C24.2366 3.20107 24.5 3.83696 24.5 4.5V17C24.5 17.663 24.2366 18.2989 23.7678 18.7678C23.2989 19.2366 22.663 19.5 22 19.5H4.5C3.83696 19.5 3.20107 19.2366 2.73223 18.7678C2.26339 18.2989 2 17.663 2 17V4.5Z" stroke="#7B7B7B" stroke-width="2.5" stroke-linecap="round" stroke-linejoin="round"/>
<path d="M2 4.5L13.25 12L24.5 4.5" stroke="#7B7B7B" stroke-width="2.5" stroke-linecap="round" stroke-linejoin="round"/>
</svg>
