<svg width="100" height="100" viewBox="0 0 100 100" fill="none" xmlns="http://www.w3.org/2000/svg">
<path fill-rule="evenodd" clip-rule="evenodd" d="M66.6654 37.5026C66.6654 41.9229 64.9094 46.1621 61.7838 49.2877C58.6582 52.4133 54.419 54.1693 49.9987 54.1693C45.5784 54.1693 41.3392 52.4133 38.2136 49.2877C35.088 46.1621 33.332 41.9229 33.332 37.5026C33.332 33.0823 35.088 28.8431 38.2136 25.7175C41.3392 22.5919 45.5784 20.8359 49.9987 20.8359C54.419 20.8359 58.6582 22.5919 61.7838 25.7175C64.9094 28.8431 66.6654 33.0823 66.6654 37.5026ZM58.332 37.5026C58.332 39.7127 57.4541 41.8324 55.8913 43.3952C54.3284 44.958 52.2088 45.8359 49.9987 45.8359C47.7886 45.8359 45.6689 44.958 44.1061 43.3952C42.5433 41.8324 41.6654 39.7127 41.6654 37.5026C41.6654 35.2925 42.5433 33.1728 44.1061 31.61C45.6689 30.0472 47.7886 29.1693 49.9987 29.1693C52.2088 29.1693 54.3284 30.0472 55.8913 31.61C57.4541 33.1728 58.332 35.2925 58.332 37.5026Z" fill="black"/>
<path fill-rule="evenodd" clip-rule="evenodd" d="M49.9993 4.16797C24.6868 4.16797 4.16602 24.6888 4.16602 50.0013C4.16602 75.3138 24.6868 95.8346 49.9993 95.8346C75.3118 95.8346 95.8327 75.3138 95.8327 50.0013C95.8327 24.6888 75.3118 4.16797 49.9993 4.16797ZM12.4993 50.0013C12.4993 58.7096 15.4702 66.7263 20.4493 73.093C23.9461 68.5009 28.4573 64.7794 33.6303 62.2193C38.8034 59.6591 44.4983 58.3296 50.2702 58.3346C55.9674 58.3292 61.5907 59.6243 66.7116 62.1212C71.8325 64.6181 76.3159 68.251 79.8202 72.743C83.4304 68.008 85.8612 62.4814 86.9114 56.6204C87.9616 50.7595 87.6011 44.7327 85.8597 39.0387C84.1183 33.3448 81.0461 28.1473 76.8972 23.8765C72.7483 19.6056 67.6421 16.384 62.0009 14.4784C56.3598 12.5728 50.346 12.0379 44.4571 12.9179C38.5682 13.7979 32.9735 16.0675 28.1359 19.539C23.2983 23.0105 19.3569 27.5841 16.6378 32.8813C13.9187 38.1785 12.5001 44.047 12.4993 50.0013ZM49.9993 87.5013C41.3908 87.5142 33.0421 84.5527 26.366 79.118C29.0532 75.271 32.6299 72.1301 36.7918 69.9625C40.9537 67.7949 45.5776 66.6646 50.2702 66.668C54.9042 66.6643 59.4722 67.7662 63.5949 69.8822C67.7175 71.9983 71.2759 75.0674 73.9743 78.8346C67.2464 84.4459 58.7601 87.5136 49.9993 87.5013Z" fill="black"/>
</svg>
